# xmcd
#
# Track frame offsets: 
#        150
#        11952
#        24036
#        35672
#        44540
#        54816
#        65303
#        74791
#        86746
#        98813
#        110340
#        121896
#        131526
#        142857
#        154698
#        166451
#        179741
#        192134
#        203364
#        215452
#        227017
#        239789
#        252646
#        264197
#        277360
#        292513
#        306483
#        318665
#        333684
#        348294
#
# Disc length: 4830 seconds
#
# Revision: 0
# Processed by: cddbd v1.5.2PL0 Copyright (c) Steve Scherf et al.
# Submitted via: ExactAudioCopyFreeDBPlugin 1.0
#
DISCID=c312dc1e
DTITLE=Slim Harpo - Buzzin' The Blues: The Complete Slim Harpo [CD4
DTITLE=)
DYEAR=2015
DGENRE=Blues
TTITLE0=Moody Blues (Instrumental, Alternative)
TTITLE1=Rainin' In My Heart (Alternative 1)
TTITLE2=Rainin' In My Heart (Alternative 2)
TTITLE3=Wild About My Baby
TTITLE4=That's Alright Baby (Don't Start Cryin Now)
TTITLE5=Lover's Confession
TTITLE6=Something Inside Me
TTITLE7=Still Rainin' In My Heart
TTITLE8=A Man Is Crying
TTITLE9=Tonite I'm Lonely
TTITLE10=I Love The Life I'm Living (Alternative 1)
TTITLE11=Buzzin' (Instrumental, Alternative)
TTITLE12=I Love The Life I'm Living (Alternative 2)
TTITLE13=My Little Queen Bee (Alternative)
TTITLE14=Little Sally Walker
TTITLE15=Boogie Chillun
TTITLE16=Blueberry Hill
TTITLE17=I'm Waiting On You Baby (Version 1)
TTITLE18=We're Two Of A Kind (Alternative)
TTITLE19=I'm Waiting On You Baby (Version 2)
TTITLE20=You'll Never Find A Love (As True As Mine)
TTITLE21=I Don't Want No One (To Take You Away From Me) (Version 1)
TTITLE22=Baby Scratch My Back (The Scratch) (Alternative)
TTITLE23=I Don't Want No One (To Take You Away From Me) (Version 2)
TTITLE24=Baby You Got What I Want
TTITLE25=Your Love For Me Is Gone
TTITLE26=I Gotta Stop Loving You
TTITLE27=Stop Working Blues
TTITLE28=I Just Can't Leave You
TTITLE29=There's Nothing As Sweet As Making Up
EXTD=
EXTT0=
EXTT1=
EXTT2=
EXTT3=
EXTT4=
EXTT5=
EXTT6=
EXTT7=
EXTT8=
EXTT9=
EXTT10=
EXTT11=
EXTT12=
EXTT13=
EXTT14=
EXTT15=
EXTT16=
EXTT17=
EXTT18=
EXTT19=
EXTT20=
EXTT21=
EXTT22=
EXTT23=
EXTT24=
EXTT25=
EXTT26=
EXTT27=
EXTT28=
EXTT29=
PLAYORDER=
